<svg width="19" height="17" viewBox="0 0 19 17" fill="none" xmlns="http://www.w3.org/2000/svg">
	<path fill-rule="evenodd" clip-rule="evenodd" d="M6.4169 1.02094C6.551 0.752732 6.82513 0.583313 7.12499 0.583313H11.875C12.1749 0.583313 12.449 0.752732 12.5831 1.02094L13.5518 2.95831H16.2292C17.3222 2.95831 18.2083 3.84442 18.2083 4.93748V14.4375C18.2083 15.5305 17.3222 16.4166 16.2292 16.4166H2.77082C1.67776 16.4166 0.791656 15.5305 0.791656 14.4375V4.93748C0.791656 3.84442 1.67776 2.95831 2.77082 2.95831H5.44821L6.4169 1.02094ZM7.21843 2.95831H11.7815L11.3857 2.16665H7.61427L7.21843 2.95831ZM2.77082 4.54165C2.55221 4.54165 2.37499 4.71887 2.37499 4.93748V14.4375C2.37499 14.6561 2.55221 14.8333 2.77082 14.8333H16.2292C16.4478 14.8333 16.625 14.6561 16.625 14.4375V4.93748C16.625 4.71887 16.4478 4.54165 16.2292 4.54165H2.77082ZM5.54166 9.68748C5.54166 7.50134 7.31385 5.72915 9.49999 5.72915C11.6861 5.72915 13.4583 7.50134 13.4583 9.68748C13.4583 11.8736 11.6861 13.6458 9.49999 13.6458C7.31385 13.6458 5.54166 11.8736 5.54166 9.68748ZM9.49999 7.31248C8.18831 7.31248 7.12499 8.37579 7.12499 9.68748C7.12499 10.9992 8.18831 12.0625 9.49999 12.0625C10.8117 12.0625 11.875 10.9992 11.875 9.68748C11.875 8.37579 10.8117 7.31248 9.49999 7.31248Z" fill="#AF0DBD" />
</svg>
