<svg width="80" height="80" viewBox="0 0 80 80" fill="none" xmlns="http://www.w3.org/2000/svg">
<rect width="80" height="80" rx="40" fill="#FF3B30"/>
<g clip-path="url(#clip0_1474_2386)">
<path d="M33.1066 29.3334H50.6666C52.1466 29.3334 53.3333 30.52 53.3333 32V48C53.3333 48.4534 53.2266 48.88 53.0266 49.2534L50.6666 46.8934V40H43.7733L38.4399 34.6667H50.6666V32H35.7733L33.1066 29.3334ZM51.3199 55.08L46.8933 50.6667H29.3333C27.8533 50.6667 26.6666 49.48 26.6666 48L26.6799 32C26.6799 31.5467 26.7866 31.12 26.9866 30.76L24.9199 28.68L26.7999 26.8L53.1999 53.2L51.3199 55.08ZM29.3333 33.1067V34.6667H30.8933L29.3333 33.1067ZM44.2266 48L36.2266 40H29.3333V48H44.2266Z" fill="white"/>
</g>
<defs>
<clipPath id="clip0_1474_2386">
<rect width="32" height="32" fill="white" transform="translate(24 24)"/>
</clipPath>
</defs>
</svg>
