<svg width="15" height="19" viewBox="0 0 15 19" fill="none" xmlns="http://www.w3.org/2000/svg">
	<path fill-rule="evenodd" clip-rule="evenodd" d="M3.93751 4.35419C3.93751 2.38668 5.53249 0.791687 7.50001 0.791687C9.46753 0.791687 11.0625 2.38668 11.0625 4.35419V9.50002C11.0625 11.4675 9.46753 13.0625 7.50001 13.0625C5.53249 13.0625 3.93751 11.4675 3.93751 9.50002V4.35419ZM7.50001 2.37502C6.40694 2.37502 5.52084 3.26112 5.52084 4.35419V9.50002C5.52084 10.5931 6.40694 11.4792 7.50001 11.4792C8.59308 11.4792 9.47918 10.5931 9.47918 9.50002V4.35419C9.47918 3.26112 8.59308 2.37502 7.50001 2.37502ZM1.56251 8.31252C1.99974 8.31252 2.35418 8.66696 2.35418 9.10419C2.35418 11.9462 4.65803 14.25 7.50001 14.25C10.342 14.25 12.6458 11.9462 12.6458 9.10419C12.6458 8.66696 13.0003 8.31252 13.4375 8.31252C13.8747 8.31252 14.2292 8.66696 14.2292 9.10419C14.2292 12.5528 11.635 15.3955 8.29168 15.7873V17.4167C8.29168 17.8539 7.93724 18.2084 7.50001 18.2084C7.06278 18.2084 6.70834 17.8539 6.70834 17.4167V15.7873C3.36499 15.3955 0.770844 12.5528 0.770844 9.10419C0.770844 8.66696 1.12528 8.31252 1.56251 8.31252Z" fill="#AF0DBD" />
</svg>
