<svg width="80" height="80" viewBox="0 0 80 80" fill="none" xmlns="http://www.w3.org/2000/svg">
<rect width="80" height="80" rx="40" fill="#26A212"/>
<g clip-path="url(#clip0_1474_2318)">
<path d="M50.6667 29.3333H29.3334C27.8534 29.3333 26.6801 30.5199 26.6801 31.9999L26.6667 47.9999C26.6667 49.4799 27.8534 50.6666 29.3334 50.6666H34.6667C35.4001 50.6666 36.0001 50.0666 36.0001 49.3333C36.0001 48.5999 35.4001 47.9999 34.6667 47.9999H29.3334V39.9999H53.3334V31.9999C53.3334 30.5333 52.1334 29.3333 50.6667 29.3333ZM50.6667 34.6666H29.3334V31.9999H50.6667V34.6666ZM43.9067 49.5599L41.0801 46.7332C40.5601 46.2132 39.7201 46.2132 39.2001 46.7332C38.6801 47.2533 38.6801 48.0933 39.2001 48.6132L42.9734 52.3866C43.4934 52.9066 44.3334 52.9066 44.8534 52.3866L52.4001 44.8399C52.9201 44.3199 52.9201 43.4799 52.4001 42.9599C51.8801 42.4399 51.0401 42.4399 50.5201 42.9599L43.9067 49.5599Z" fill="white"/>
</g>
<defs>
<clipPath id="clip0_1474_2318">
<rect width="32" height="32" fill="white" transform="translate(24 24)"/>
</clipPath>
</defs>
</svg>
