<svg width="44" height="40" viewBox="0 0 44 40" fill="none" xmlns="http://www.w3.org/2000/svg">
<rect width="44" height="40" rx="6" fill="#FDE4FF"/>
<path d="M17.8885 25.0713H10.6151C10.4897 25.0713 10.3894 25.1716 10.3894 25.297V25.8488C10.3894 25.9742 10.4897 26.0745 10.6151 26.0745H16.0075V29.0591C15.857 28.8334 15.6814 28.6327 15.4808 28.4321C14.8538 27.78 14.1515 27.4539 13.4492 27.4539C12.8975 27.4539 12.3959 27.7298 12.0196 28.2565C11.7187 28.6829 11.518 29.1845 11.518 29.636C11.518 30.1125 11.5933 30.7144 11.9444 31.2662C12.3959 31.9434 13.0981 32.144 13.7251 32.144C14.5528 32.144 15.255 31.5672 15.255 30.8398C15.255 30.4135 15.0293 30.0372 14.628 29.8115L14.2267 29.5858V30.1877C14.2017 30.3382 13.9007 30.6141 13.5746 30.6141C13.2988 30.6141 13.0229 30.4887 12.8724 30.3382C12.747 30.2128 12.7219 30.0122 12.7219 29.8617C12.7219 29.661 12.7971 29.4604 12.9476 29.2598C13.1232 29.0591 13.2988 28.9588 13.5746 28.9588C14.302 28.9337 14.9039 29.2848 15.4055 30.0122C15.8068 30.6141 16.0075 31.191 16.0075 31.818L16.0325 33.3228L17.111 33.9749C17.1361 34 17.1862 34 17.2364 34C17.3618 34 17.4621 33.8997 17.4621 33.7743V26.0996H17.8885C18.0139 26.0996 18.1142 25.9993 18.1142 25.8739V25.3221C18.1142 25.1716 18.0139 25.0713 17.8885 25.0713" fill="#EC1C24"/>
<path d="M32.385 25.0713H23.1804C23.055 25.0713 22.9547 25.1716 22.9547 25.297V26.3253C22.0769 25.3973 21.2743 24.9208 20.5469 24.9208C19.8698 24.8957 19.2678 25.0713 18.8164 25.4475C18.3399 25.8237 18.064 26.2752 18.064 26.8019C18.064 28.407 19.8698 28.407 20.3212 28.1562C20.3965 28.106 20.4968 28.0559 20.6222 28.0559C20.9984 28.0559 21.1238 28.3318 21.1238 28.5826C21.1238 28.9588 20.5971 29.2848 19.945 29.2848C19.5939 29.2848 19.3682 29.1845 19.2177 28.9839L18.9418 28.5575L18.7411 29.034C18.691 29.1594 18.6408 29.2848 18.6408 29.4604C18.6408 29.8366 18.8415 30.1877 19.1675 30.4887C19.4936 30.7646 19.8948 30.9151 20.3212 30.9151C20.9984 30.9151 21.5752 30.6643 21.9515 30.1627C22.2524 29.7614 22.4029 29.2848 22.4029 28.7581C22.4029 28.4572 22.3026 28.1562 22.0518 27.8051C21.7508 27.3787 21.3997 27.1781 20.9984 27.1781C20.8479 27.1781 20.6723 27.2282 20.4968 27.2784C20.4215 27.3035 20.2961 27.3285 20.2711 27.3285C20.2209 27.3285 20.0955 27.3035 20.0203 27.2031C19.9701 27.153 19.8698 27.0276 19.8698 26.852C19.8948 26.4507 20.246 26.0494 20.873 26.0494H20.8981C21.3244 26.0494 21.7508 26.2501 22.1772 26.6514C22.5032 26.9523 22.754 27.2784 22.9547 27.6295V33.3479L24.0331 33.9749C24.0582 34 24.1084 34 24.1586 34C24.284 34 24.3843 33.8997 24.3843 33.7743V26.0996H26.0145V31.0656L27.3187 31.5922C27.3438 31.5922 27.3689 31.6173 27.394 31.6173C27.5194 31.6173 27.6197 31.517 27.6197 31.4167V31.3665C27.8454 29.9119 28.4724 28.8835 29.5509 28.2816V28.5575C29.5509 28.7581 29.576 29.3099 29.576 29.6109C29.576 29.7864 29.601 29.9119 29.601 30.0122C29.601 30.5639 29.6763 31.4668 29.8769 32.0939C30.2281 33.3228 30.83 33.5987 31.2814 33.6238H31.3065C31.5573 33.6238 31.758 33.5485 31.9085 33.4231C31.9837 33.3479 32.084 33.1974 32.084 32.9466C32.084 32.7209 32.0589 32.5453 31.9837 32.4199L31.8834 32.2443L31.6827 32.2945C31.457 32.3447 31.3818 32.3447 31.3567 32.3447H31.3065C31.2564 32.3447 31.2313 32.3447 31.2062 32.3196C31.131 32.2945 31.0056 32.1691 30.9052 31.7678C30.83 31.4668 30.8049 31.0906 30.8049 30.8649C30.8049 29.2598 31.131 28.0559 31.6577 27.78L31.6827 27.7549C31.758 27.7048 31.8081 27.6295 31.8081 27.5543C31.8081 27.5041 31.8081 27.479 31.7831 27.4539V27.3787C31.5323 26.8771 31.0056 26.526 30.2782 26.3253L30.2281 26.3002H30.1779C29.601 26.4006 28.9239 26.8019 28.0711 27.5041C27.8454 27.6797 27.6448 27.8803 27.4441 28.0559V26.0745H32.385C32.5104 26.0745 32.6107 25.9742 32.6107 25.8488V25.297C32.6107 25.1716 32.5104 25.0713 32.385 25.0713" fill="#EC1C24"/>
<path d="M29.125 14.8886C29.125 15.1143 29.125 15.3651 29.1 15.5908C29.0247 16.594 28.7739 17.522 28.3726 18.3998C28.2221 18.751 28.0215 19.077 27.8208 19.4031C26.316 21.7857 23.6825 23.3407 20.6729 23.3407C19.3938 23.3407 18.1648 23.0397 17.0613 22.5381C14.2021 21.1838 12.2207 18.2494 12.2207 14.8886C12.2207 11.5528 14.1268 8.69364 16.9108 7.31421C16.6851 7.5901 16.4844 7.91614 16.3088 8.21711C16.2838 8.24219 16.2838 8.26727 16.2587 8.29235C16.1584 8.39267 16.033 8.46792 15.9326 8.56824L15.5564 8.94445L15.4812 9.01969C15.4561 9.04477 15.431 9.06985 15.4059 9.12001C15.3558 9.17017 15.3056 9.22033 15.2805 9.2705C15.2053 9.37082 15.105 9.47114 15.0297 9.59654C14.6786 10.048 14.3776 10.5747 14.1519 11.1014L14.0767 11.2519C14.0516 11.3271 14.0265 11.3773 14.0014 11.4525C14.0014 11.4776 13.9763 11.5278 13.9763 11.5528C13.9513 11.6532 13.9011 11.7535 13.876 11.8538C13.8509 11.929 13.8259 11.9792 13.8259 12.0544C13.8259 12.0795 13.8008 12.1297 13.8008 12.1548C13.7757 12.23 13.7757 12.2802 13.7506 12.3554C13.7005 12.5561 13.6503 12.7818 13.6252 13.0075C13.6252 13.0577 13.6001 13.1078 13.6001 13.1831C13.6001 13.2332 13.6001 13.2583 13.5751 13.3085C13.5751 13.3837 13.5751 13.4339 13.55 13.5091V14.0609C13.55 16.3683 14.6034 18.4249 16.2587 19.7793C17.5378 20.8327 19.168 21.4597 20.9237 21.4597C22.5288 21.4597 24.0337 20.933 25.2375 20.0552C26.1154 19.4031 26.8678 18.5754 27.3945 17.6223C27.4697 17.4969 27.5199 17.3715 27.5951 17.2461C28.0215 16.3683 28.2723 15.3651 28.2974 14.3368V14.086C28.2974 13.8352 28.2974 13.6094 28.2723 13.3837C28.2974 13.3837 28.2974 13.4088 28.2974 13.4088C28.4228 13.5091 28.5231 13.6094 28.6234 13.7098C28.7237 13.5342 28.8241 13.3586 28.9495 13.2082C29.0247 13.5342 29.0749 13.8602 29.1 14.1863C29.125 14.3869 29.125 14.6377 29.125 14.8886" fill="#EA2227"/>
<path d="M28.297 14.0358V14.2866C28.297 15.7915 27.6699 17.0455 27.5947 17.196C27.5445 17.3214 27.4693 17.4468 27.3941 17.5722C26.8674 18.5252 26.1149 19.378 25.2371 20.005C24.0333 20.8828 22.5284 21.4095 20.9233 21.4095C19.1425 21.4095 17.5123 20.7825 16.2583 19.7291C14.6029 18.3748 13.5496 16.3181 13.5496 14.0107V13.459C13.5496 13.3837 13.5496 13.3336 13.5746 13.2583C13.5746 13.2081 13.5746 13.1831 13.5997 13.1329C13.5997 13.0827 13.6248 13.0326 13.6248 12.9573C13.6499 12.7316 13.7 12.531 13.7502 12.3052C13.7753 12.23 13.7753 12.1798 13.8004 12.1046C13.8004 12.0795 13.8254 12.0294 13.8254 12.0043C13.8505 11.929 13.8505 11.8789 13.8756 11.8036C13.9007 11.7033 13.9509 11.603 13.9759 11.5027C13.9759 11.4776 14.001 11.4274 14.001 11.4023C14.0261 11.3271 14.0512 11.2769 14.0763 11.2017L14.1515 11.0512C14.3772 10.5245 14.6782 9.99783 15.0293 9.54638C15.1046 9.44606 15.2049 9.34573 15.2801 9.22033C15.3303 9.17017 15.3554 9.12001 15.4055 9.06985C15.4306 9.04477 15.4557 9.01969 15.4808 8.96953L15.556 8.89428L15.9322 8.51807C16.0325 8.41775 16.1579 8.31743 16.2583 8.24219C16.2332 8.26727 16.2332 8.29235 16.2081 8.31743C16.183 8.34251 16.183 8.36759 16.1579 8.41775C15.7316 9.29557 15.4557 10.2988 15.3554 11.4023C15.3303 11.7033 15.3052 12.0043 15.3052 12.3052C15.3052 16.1677 17.5625 19.3027 20.3715 19.3027H20.6474C21.0487 19.3027 21.45 19.2526 21.8262 19.1523C23.7323 18.6256 25.1117 16.895 25.1117 14.8384V14.713C25.0866 13.484 24.5599 12.4056 23.7323 11.603C24.3091 11.6281 24.8609 11.7033 25.4127 11.8287C26.441 12.1046 27.3941 12.5811 28.1966 13.2332C28.2217 13.2332 28.2217 13.2583 28.2468 13.2583C28.2719 13.5593 28.297 13.785 28.297 14.0358" fill="#F69220"/>
<path d="M28.3224 14.0358V14.2866C28.3224 15.8667 27.6201 17.221 27.6201 17.221C27.57 17.3464 27.4947 17.4719 27.4195 17.5973C26.8928 18.5503 26.1404 19.4031 25.2375 20.0552C23.9584 20.9581 22.4786 21.4597 20.8985 21.4597C19.1931 21.4597 17.5127 20.8577 16.2085 19.7793C14.4779 18.3748 13.4998 16.268 13.4998 14.0358C13.4998 11.8036 14.503 9.69686 16.2335 8.29235L16.3088 8.24219C16.2837 8.26727 16.2837 8.29235 16.2586 8.31743C16.2335 8.34251 16.2335 8.36759 16.2085 8.39267C14.5281 9.79719 13.5499 11.8538 13.5499 14.0358C13.5499 16.2429 14.5281 18.3246 16.2335 19.7291C17.5377 20.8076 19.1931 21.3844 20.8985 21.3844C22.4535 21.3844 23.9333 20.9079 25.1873 20.005C26.0651 19.378 26.8176 18.5252 27.3443 17.5722C27.4195 17.4468 27.4697 17.3214 27.5449 17.196C27.5449 17.1709 28.2472 15.8416 28.2472 14.2866V14.0358C28.2472 13.8101 28.2472 13.5593 28.2221 13.3336V13.3085C28.2472 13.3085 28.2472 13.3336 28.2722 13.3336L28.2973 13.3586C28.3224 13.5844 28.3224 13.8101 28.3224 14.0358Z" fill="#F69220"/>
<path d="M26.3154 9.44628C26.3154 9.44628 20.296 8.31765 17.4619 13.5595C17.4619 13.5595 17.9635 9.92281 22.2774 8.29257L21.4246 6.68741C21.4246 6.68741 23.1552 5.13241 26.19 5.5337L26.3154 9.44628Z" fill="#EA2227"/>
<path d="M18.8418 12.2301C18.8418 12.2301 21.2495 9.09502 26.7422 9.8976L26.6669 8.06671C26.6669 8.06671 28.9744 7.99147 30.8303 9.59663L28.548 13.0578C28.548 13.0578 26.9679 11.2269 23.7074 11.1767C22.3782 11.1516 20.7479 11.3272 18.8418 12.2301" fill="#F69220"/>
<path d="M16.4588 15.0891C16.4588 15.0891 13.6999 9.09484 20.0955 5.23242L21.6254 8.04145C21.6254 8.04145 20.5971 8.39258 19.4935 9.34564C18.2896 10.3739 16.9855 12.1296 16.4588 15.0891Z" fill="#F69220"/>
<path d="M20.0957 13.4589C20.0957 13.4589 19.569 13.5843 19.5941 13.3084C19.5941 13.2081 19.6443 13.183 19.6945 13.2081C19.6945 13.1579 19.5941 13.0325 19.8199 12.9573C19.8951 12.857 19.9703 12.7567 19.9954 12.7065C20.0205 12.6313 20.0707 12.556 20.2713 12.5811C20.472 12.6313 20.6977 12.8319 20.7228 12.8821C20.8482 12.8821 20.9736 12.9071 20.9234 12.9322C20.8732 12.9573 20.8482 13.0075 20.8732 13.0075C20.8732 13.0075 20.9485 13.0576 20.7478 13.0576C20.7478 13.1078 20.798 13.1078 20.8231 13.1329C20.8482 13.1579 20.8231 13.183 20.8231 13.183C20.8231 13.183 20.8482 13.2833 20.7478 13.2583C20.6475 13.2081 20.6475 13.183 20.5974 13.183C20.5723 13.183 20.497 13.2081 20.497 13.2332C20.497 13.2583 20.6224 13.3335 20.472 13.3586C20.4469 13.3837 20.5221 13.4088 20.472 13.4338C20.4218 13.4589 20.1961 13.6345 20.0957 13.6596C19.9954 13.6596 19.9703 13.6345 19.9703 13.5843C19.9703 13.5342 20.0205 13.5091 20.0957 13.5091C20.1208 13.484 20.1208 13.4589 20.0957 13.4589" fill="#EC1C24"/>
<path d="M20.0457 14.0108C19.9956 14.0108 19.8451 13.9105 19.9203 13.8603C19.9956 13.8102 20.3467 13.5844 20.422 13.5593C20.4972 13.5343 20.5975 13.6346 20.4972 13.7098C20.422 13.7851 20.0457 14.0108 20.0457 14.0108Z" fill="#EC1C24"/>
<path d="M20.5974 13.7599C20.5974 13.7098 20.6476 13.484 20.6476 13.4339C20.6476 13.3837 20.8231 13.3837 20.773 13.5593C20.7479 13.7599 20.5974 13.8101 20.5974 13.7599Z" fill="#EC1C24"/>
<path d="M20.8231 13.3587C20.8231 13.3587 21.7762 13.3086 21.8514 13.3587C21.9267 13.4089 22.2527 13.9105 22.1775 14.3619C22.1022 14.8134 21.9517 14.9388 21.3498 14.989C21.3498 14.8385 21.3247 14.4623 21.2495 14.3619C21.1993 14.2616 20.9736 14.0359 20.8733 14.0359C20.8733 14.1362 20.8482 14.4623 20.8482 14.4623C20.8482 14.4623 20.5472 14.4873 20.4971 14.4121V13.9356C20.4971 13.9356 20.773 13.6848 20.798 13.6346C20.8482 13.6597 20.8482 13.8102 21.1993 13.7851C21.2244 13.7349 20.8231 13.7851 20.8231 13.3587" fill="#EC1C24"/>
<path d="M20.4718 13.7852C20.4718 13.7852 20.1709 14.036 20.0956 14.0861C20.0705 14.1614 20.0204 14.4373 20.4217 14.4373C20.4468 14.2617 20.4718 13.7852 20.4718 13.7852Z" fill="#EC1C24"/>
<path d="M19.7449 14.1613C19.6446 14.1613 19.5694 14.1362 19.5945 14.061C19.5945 13.9857 19.7449 13.9105 19.8202 13.9356C19.8954 13.9607 20.0459 13.9857 20.0459 14.3118C20.0961 14.387 20.2967 14.5124 20.5224 14.5375C20.7482 14.5626 20.8987 14.5124 20.8987 14.5877V15.0391C20.8987 15.0391 20.6228 15.0391 19.9205 14.5375C19.8703 14.4623 19.8202 14.4121 19.8202 14.2867C19.8202 14.2366 19.77 14.1613 19.7449 14.1613Z" fill="#EC1C24"/>
<path d="M19.5193 14.2114C19.3939 14.2114 19.0678 14.4873 19.3186 14.6127C19.3939 14.5626 19.4441 14.4873 19.4441 14.4873C19.4441 14.4873 19.3939 14.6378 19.5193 14.688C19.6447 14.7381 19.5945 14.6127 19.6698 14.6127C19.7199 14.688 19.7199 14.713 19.7952 14.713C19.8704 14.713 19.8704 14.5124 19.7952 14.4121C19.7199 14.2867 19.6447 14.2365 19.5193 14.2114Z" fill="#EC1C24"/>
<path d="M20.9485 14.2615V15.1393C20.9485 15.1393 21.2495 15.039 21.2745 14.9637C21.2745 14.8132 21.2244 14.2615 20.9485 14.2615Z" fill="#EC1C24"/>
<path d="M20.2463 14.8386C20.2463 14.8386 20.5975 15.0643 20.7981 15.1647C20.773 15.2148 20.6225 15.3904 20.5724 15.3904C20.5222 15.3653 20.2714 15.0142 20.2463 14.8386" fill="#EC1C24"/>
<path d="M18.5659 15.1643H19.0174V15.3399H18.591L18.5659 15.1643Z" fill="#EC1C24"/>
<path d="M23.7077 15.0894H21.7263L22.0524 15.3402H23.7077V15.0894Z" fill="#EC1C24"/>
<path d="M21.3497 15.064C21.3748 15.0389 21.6005 15.2145 21.5504 15.2395C21.4751 15.2646 20.8732 15.5405 20.823 15.5154C20.7729 15.4903 20.7729 15.3399 20.8481 15.3148C20.8983 15.2897 21.2494 15.1894 21.3497 15.064" fill="#EC1C24"/>
<path d="M20.6731 15.4906C20.5979 15.4405 20.1966 15.8417 20.3721 15.8668C20.5477 15.8919 20.9741 15.9671 21.0744 16.0173C21.1747 15.9671 21.275 15.8919 21.25 15.8417C21.3252 15.8417 21.4255 15.9421 21.5258 15.917C21.6262 15.8668 22.1027 15.5157 22.1278 15.4655C22.0275 15.3903 21.8268 15.2649 21.7265 15.2649C21.6513 15.2649 20.9992 15.6411 20.6731 15.4906" fill="#EC1C24"/>
<path d="M20.4724 15.967C20.5225 15.967 21.0242 16.1677 21.1496 16.1426C21.275 16.1175 21.3 15.9921 21.3753 15.9921C21.4505 15.9921 21.4756 16.0674 21.601 15.9921C21.7264 15.9169 21.9271 15.7413 21.9772 15.6912C21.9772 15.7664 21.9772 15.9921 21.5258 16.1928C21.0743 16.3934 19.9958 16.6944 19.9708 16.8449C20.0209 16.87 20.1463 16.8198 20.2467 16.7696C20.2968 16.8198 20.3971 16.9452 20.3721 17.196C20.347 17.4217 20.1714 17.823 20.1714 17.9233V18.5754C20.1714 18.6256 20.2717 18.9015 20.1212 18.8764C19.9958 18.8513 19.8955 18.8513 19.8454 18.8513C19.7952 18.8513 19.6949 18.9516 19.5946 18.9266C19.4942 18.9015 19.3438 18.8764 19.3438 18.8262C19.3438 18.7761 19.4441 18.7761 19.5444 18.751C19.6447 18.7259 19.6949 18.6256 19.8704 18.5504C19.8704 18.4249 19.8203 17.5722 19.8203 17.3966C19.8203 17.2211 19.7701 16.8449 19.8454 16.6944C19.8704 16.5439 20.2717 15.967 20.4724 15.967" fill="#EC1C24"/>
<path d="M21.124 16.4938C21.124 16.5439 21.425 17.3214 21.5755 17.3465C21.7009 17.3716 22.98 17.0957 23.2308 17.1709C23.306 17.2713 23.4565 17.4468 23.4565 17.5722C23.4565 17.5722 23.4816 17.823 23.4565 17.8481C23.5067 17.8481 23.607 17.823 23.6321 17.7478C23.6572 17.6726 23.6321 17.3465 23.6572 17.2713C23.6572 17.2211 23.8076 16.8951 23.607 16.9201C23.4064 16.9201 22.8044 16.9201 22.6038 16.87C22.4031 16.8198 21.9768 16.7446 21.8764 16.7947C21.7761 16.8449 21.6507 17.0205 21.6507 17.0706C21.6006 17.0706 21.6006 17.0455 21.6256 16.8951C21.6758 16.7697 21.8263 16.3684 21.8012 16.1677C21.6507 16.1677 21.124 16.4938 21.124 16.4938Z" fill="#EC1C24"/>
<path d="M20.3968 15.265C20.4219 15.2901 20.4219 15.3653 20.4721 15.3904L19.4438 15.3152C19.4438 15.3152 19.3184 15.2399 19.3685 15.2148L20.3968 15.265Z" fill="#EC1C24"/>
<path d="M19.2683 15.1645H20.2966C20.2966 15.1645 20.2213 15.0391 20.1963 14.9639C20.0207 14.9639 19.2432 14.9889 19.2432 14.9889C19.2432 14.9889 19.1429 14.9889 19.1429 15.1896C19.1178 15.2398 19.2181 15.315 19.2683 15.1645" fill="#EC1C24"/>
<path d="M18.29 15.3403H18.4906C18.4906 15.3403 18.5659 15.3152 18.4906 15.24C18.4154 15.1647 18.29 15.1146 18.3903 14.9641C18.29 14.939 18.1395 14.9139 18.1646 15.24H18.0642C18.0642 15.24 18.0392 15.0644 17.7884 15.0644C17.5626 15.0644 16.9607 15.3152 16.9607 15.3152C16.9607 15.3152 17.6128 15.4908 17.7884 15.4908C17.9639 15.4908 18.0642 15.3403 18.0642 15.3403H18.1395C18.1395 15.3403 18.1646 15.4657 18.2147 15.5159V15.7165C18.2147 15.7165 18.1144 15.7416 18.1395 15.867C18.1646 15.9673 18.2398 15.9673 18.2398 15.9673C18.2649 15.9673 18.29 15.9422 18.3652 15.9422C18.4154 15.8921 18.3903 15.7667 18.29 15.7165V15.566C18.29 15.566 18.3652 15.5159 18.3652 15.4657C18.3652 15.4155 18.29 15.4155 18.29 15.3403Z" fill="#EC1C24"/>
<path d="M19.5193 16.3431C19.5945 16.2929 19.6196 16.1926 19.6196 16.1926V15.5906C19.6196 15.4402 19.3688 15.3398 19.3437 15.3398H19.3186C19.2936 15.3649 19.2183 15.4151 19.1682 15.4151C19.0929 15.4151 19.0678 15.4151 18.9926 15.3398C18.792 15.3398 18.6916 15.5906 18.6666 15.5906C18.6666 15.6408 18.6415 16.0672 18.6666 16.1424C18.6916 16.2177 18.7418 16.2678 18.7669 16.2929C18.7167 16.4434 18.5161 17.246 18.792 17.3463V17.4717H19.4942V17.3212C19.745 17.2209 19.5695 16.5437 19.5193 16.3431M18.7418 15.5906C18.7669 15.5656 18.8421 15.3649 18.9926 15.3649C19.0678 15.4402 19.118 15.4402 19.1932 15.4402C19.2685 15.4402 19.3186 15.39 19.3688 15.3649C19.4441 15.39 19.5945 15.4652 19.5945 15.5656V16.1675C19.5945 16.1926 19.5695 16.2427 19.5193 16.2678H19.3939V16.017H18.9174V16.2678H18.817C18.792 16.2427 18.7418 16.1926 18.7418 16.1424C18.7167 16.0923 18.7167 15.7913 18.7418 15.5906M19.2183 17.246H19.0929C19.0678 17.246 19.0428 17.2209 19.0428 17.1958C19.0428 17.1707 19.0678 17.1456 19.0929 17.1456H19.2183C19.2434 17.1456 19.2685 17.1707 19.2685 17.1958C19.2685 17.2209 19.2434 17.246 19.2183 17.246ZM19.4691 17.2961L19.1431 16.9199L18.8421 17.2961C18.6415 17.2209 18.7669 16.5939 18.8421 16.318H19.4942C19.5444 16.5939 19.6698 17.1958 19.4691 17.2961" fill="#EC1C24"/>
<path d="M19.3685 16.594C19.4437 16.4937 19.3434 16.4185 19.3434 16.4185H18.9421C18.8167 16.4185 18.8668 16.594 18.8668 16.594L19.1176 16.8197C19.1176 16.8197 19.2932 16.7194 19.3685 16.594Z" fill="#EC1C24"/>
<path d="M19.218 16.8448L19.4688 17.1458C19.4688 17.1458 19.4437 16.7947 19.4437 16.6943C19.3685 16.6943 19.218 16.8448 19.218 16.8448" fill="#EC1C24"/>
<path d="M18.8417 16.6943C18.8417 16.8197 18.8167 17.1458 18.8167 17.1458L19.0675 16.8448C19.0675 16.8448 18.917 16.6943 18.8417 16.6943" fill="#EC1C24"/>
<path d="M19.3182 15.9419H19.3684V15.8917C19.3684 15.8666 19.3433 15.8416 19.3182 15.8416H18.942C18.9169 15.8416 18.8918 15.8666 18.8918 15.8917V15.9419H18.942H19.3182Z" fill="#EC1C24"/>
<path d="M18.7665 17.522H18.7163V17.5721C18.7163 17.5972 18.7414 17.6223 18.7665 17.6223H19.4938C19.5189 17.6223 19.544 17.5972 19.544 17.5721V17.522H19.4938H18.7665Z" fill="#EC1C24"/>
</svg>
