<svg width="44" height="40" viewBox="0 0 44 40" fill="none" xmlns="http://www.w3.org/2000/svg">
<rect width="44" height="40" rx="6" fill="#FDE4FF"/>
<path d="M28.6674 21.3826L18.8608 19.6235L20.1609 26.3126L28.6674 21.3826Z" fill="#D12053"/>
<path d="M28.6673 21.3828L21.2777 9.63037L18.8625 19.6259L28.6673 21.3828Z" fill="#E2136E"/>
<path d="M18.6332 19.4903L10.8904 8.16333L21.0299 9.54983L18.6332 19.4903Z" fill="#D12053"/>
<path d="M15.1066 14.757L10.8071 10.1191H11.9389L15.1066 14.757Z" fill="#9E1638"/>
<path d="M30.7585 15.6697L28.9388 21.3194L25.9893 16.6498L30.7585 15.6697Z" fill="#D12053"/>
<path d="M21.3057 25.9742L28.4456 22.691L28.7452 21.6475L21.3057 25.9742Z" fill="#E2136E"/>
<path d="M15.595 32.1698L18.6536 19.8882L20.2052 27.8791L15.595 32.1698Z" fill="#9E1638"/>
<path d="M31.0435 15.7139L30.2927 18.0466L33 17.9958L31.0435 15.7139Z" fill="#E2136E"/>
</svg>
